<svg id="SvgjsSvg1011" width="288" height="288" xmlns="http://www.w3.org/2000/svg" version="1.1" xmlns:xlink="http://www.w3.org/1999/xlink" xmlns:svgjs="http://svgjs.com/svgjs"><defs id="SvgjsDefs1012"></defs><g id="SvgjsG1013" transform="matrix(0.9167,0,0,0.9167,11.995020780944827,11.995337745431186)"><svg xmlns="http://www.w3.org/2000/svg" viewBox="0 0 24 24" width="288" height="288"><path d="M20.37 5.164A.498.498 0 0020 5H4a.498.498 0 00-.498.547l1.5 16c.02.205.163.377.361.434l7 2a.492.492 0 00.295-.007l6-2a.5.5 0 00.34-.427l1.5-16a.503.503 0 00-.128-.383zM8.515 18.622l-.5-2a.5.5 0 01.97-.244l.36 1.44a.5.5 0 00.348.36l2.67.763a.51.51 0 00.274 0l2.58-.737a.502.502 0 00.36-.426l.358-3.223a.5.5 0 00-.497-.555H8a.5.5 0 010-1h7.661a.5.5 0 00.497-.445l.222-2a.5.5 0 00-.497-.555H7.5a.5.5 0 010-1H17a.502.502 0 01.497.556l-1 9a.497.497 0 01-.359.425l-3.501 1a.5.5 0 01-.274 0l-3.5-1a.5.5 0 01-.348-.359zM7 3h2a.5.5 0 000-1H7.5V1H9a.5.5 0 000-1H7a.5.5 0 00-.5.5v2A.5.5 0 007 3zM10.5 2.5a.5.5 0 00.5.5h2a.5.5 0 00.354-.854L12.207 1H13a.5.5 0 000-1h-2a.5.5 0 00-.354.854L11.793 2H11a.5.5 0 00-.5.5zM14.5 2.5a.5.5 0 00.5.5h2a.5.5 0 00.354-.854L16.207 1H17a.5.5 0 000-1h-2a.5.5 0 00-.354.854L15.793 2H15a.5.5 0 00-.5.5z" fill="#20d1c2" class="color000 svgShape"></path></svg></g></svg>